<svg width="70" height="70" viewBox="0 0 70 70" fill="none" xmlns="http://www.w3.org/2000/svg">
<circle cx="35" cy="35" r="35" fill="#EAF6EC"/>
<path d="M24.9503 44.541C24.9514 45.4198 25.3009 46.2623 25.922 46.8838C26.5432 47.5054 27.3855 47.8554 28.2642 47.8571H41.7342C42.6133 47.856 43.4561 47.5062 44.0778 46.8846C44.6994 46.263 45.0492 45.4202 45.0503 44.541V30.0843C45.0494 29.2049 44.6998 28.3619 44.0782 27.74C43.4565 27.1181 42.6135 26.7682 41.7342 26.7671H41.7235C41.6338 26.1095 41.3093 25.5066 40.81 25.0694C40.3106 24.6323 39.67 24.3905 39.0064 24.3885H38.1385C37.6928 23.0825 36.4542 22.1428 35.0003 22.1428C33.5464 22.1428 32.3078 23.0835 31.861 24.3875H31.0039C29.6142 24.3875 28.4731 25.4268 28.2878 26.7671H28.2664C27.3869 26.768 26.5436 27.1177 25.9217 27.7396C25.2998 28.3615 24.9501 29.2048 24.9492 30.0843L24.9503 44.541ZM30.3931 27.1432C30.3931 26.8057 30.6674 26.5303 31.0039 26.5303H32.7556C33.0398 26.5303 33.3123 26.4174 33.5133 26.2165C33.7142 26.0156 33.8271 25.7431 33.8271 25.4589C33.84 25.1564 33.9693 24.8706 34.1879 24.6612C34.4065 24.4517 34.6975 24.3348 35.0003 24.3348C35.303 24.3348 35.5941 24.4517 35.8127 24.6612C36.0313 24.8706 36.1606 25.1564 36.1735 25.4589C36.1735 25.7431 36.2864 26.0156 36.4873 26.2165C36.6883 26.4174 36.9608 26.5303 37.2449 26.5303H39.0074C39.3449 26.5303 39.6203 26.8057 39.6203 27.1432V28.265C39.6203 28.4275 39.5557 28.5834 39.4408 28.6983C39.3259 28.8133 39.17 28.8778 39.0074 28.8778H31.0039C30.8417 28.8773 30.6864 28.8124 30.5719 28.6976C30.4574 28.5827 30.3931 28.4271 30.3931 28.265V27.1432ZM27.0931 30.0843C27.0931 29.4371 27.6181 28.91 28.2653 28.91H28.3339C28.478 29.5103 28.8197 30.0448 29.3041 30.4276C29.7885 30.8104 30.3875 31.0192 31.0049 31.0207H39.0085C39.6257 31.019 40.2245 30.81 40.7087 30.4272C41.1929 30.0445 41.5344 29.5101 41.6785 28.91H41.7353C42.3824 28.91 42.9085 29.4371 42.9085 30.0843V44.541C42.9085 45.1882 42.3824 45.7143 41.7353 45.7143H28.2653C27.9542 45.714 27.656 45.5903 27.436 45.3703C27.2161 45.1504 27.0924 44.8521 27.0921 44.541L27.0931 30.0843Z" fill="#28A745"/>
<path d="M33.4085 39.875C33.6094 40.0758 33.8819 40.1887 34.166 40.1887C34.4501 40.1887 34.7225 40.0758 34.9235 39.875L38.5342 36.2642C38.6389 36.166 38.7228 36.0478 38.7809 35.9165C38.8391 35.7852 38.8702 35.6436 38.8726 35.5001C38.8749 35.3565 38.8484 35.214 38.7945 35.0809C38.7407 34.9478 38.6606 34.8269 38.5592 34.7253C38.4577 34.6238 38.3368 34.5437 38.2038 34.4897C38.0707 34.4358 37.9282 34.4092 37.7846 34.4114C37.6411 34.4136 37.4995 34.4447 37.3681 34.5027C37.2368 34.5607 37.1185 34.6446 37.0202 34.7492L34.166 37.6035L32.9788 36.4164C32.88 36.314 32.7618 36.2324 32.631 36.1763C32.5003 36.1201 32.3597 36.0906 32.2175 36.0893C32.0752 36.0881 31.9341 36.1152 31.8024 36.1691C31.6708 36.2229 31.5511 36.3025 31.4505 36.4031C31.3499 36.5037 31.2704 36.6233 31.2165 36.755C31.1626 36.8867 31.1355 37.0278 31.1368 37.17C31.138 37.3123 31.1676 37.4529 31.2237 37.5836C31.2799 37.7143 31.3615 37.8325 31.4638 37.9314L33.4085 39.875Z" fill="#28A745"/>
</svg>
