<svg width="19" height="13" viewBox="0 0 19 13" fill="none" xmlns="http://www.w3.org/2000/svg">
<path fill-rule="evenodd" clip-rule="evenodd" d="M17.2491 6.56699C15.6353 9.46516 12.5746 11.2655 9.26328 11.2655C5.94977 11.2655 2.88918 9.46516 1.27527 6.56699C1.15098 6.34195 1.15098 6.10406 1.27527 5.87922C2.88918 2.98109 5.94977 1.18094 9.26328 1.18094C12.5746 1.18094 15.6352 2.98109 17.2491 5.87922C17.3756 6.10406 17.3756 6.34195 17.2491 6.56699ZM18.2801 5.30461C16.4583 2.03246 13.0033 0 9.26328 0C5.52109 0 2.06613 2.03246 0.244336 5.30461C-0.0814453 5.88844 -0.0814453 6.55777 0.244336 7.14117C2.06613 10.4133 5.52109 12.4462 9.26328 12.4462C13.0033 12.4462 16.4583 10.4133 18.2801 7.14117C18.6059 6.55781 18.6059 5.88844 18.2801 5.30461ZM9.26328 8.64555C10.5986 8.64555 11.6852 7.55891 11.6852 6.22301C11.6852 4.88711 10.5986 3.80047 9.26328 3.80047C7.92586 3.80047 6.83922 4.88711 6.83922 6.22301C6.83922 7.55891 7.9259 8.64555 9.26328 8.64555ZM9.26328 2.61953C7.2743 2.61953 5.65828 4.23621 5.65828 6.22305C5.65828 8.21031 7.27434 9.82633 9.26328 9.82633C11.2501 9.82633 12.8661 8.21027 12.8661 6.22305C12.8661 4.23621 11.2501 2.61953 9.26328 2.61953Z" fill="black"/>
</svg>
